<?xml version="1.0" encoding="UTF-8" standalone="no"?>
<svg
   xmlns:dc="http://purl.org/dc/elements/1.1/"
   xmlns:cc="http://creativecommons.org/ns#"
   xmlns:rdf="http://www.w3.org/1999/02/22-rdf-syntax-ns#"
   xmlns:svg="http://www.w3.org/2000/svg"
   xmlns="http://www.w3.org/2000/svg"
   xmlns:sodipodi="http://sodipodi.sourceforge.net/DTD/sodipodi-0.dtd"
   xmlns:inkscape="http://www.inkscape.org/namespaces/inkscape"
   inkscape:export-ydpi="216.41429"
   inkscape:export-xdpi="216.41429"
   inkscape:export-filename="/Users/vvision/CODE/life/yt-auto-dark/icons/icon@2x.png"
   inkscape:version="1.0beta2 (2b71d25, 2019-12-03)"
   sodipodi:docname="ytAutoDark.svg"
   id="svg78"
   version="1.1"
   viewBox="0 0 48 48"
   height="48"
   width="48">
  <metadata
     id="metadata84">
    <rdf:RDF>
      <cc:Work
         rdf:about="">
        <dc:format>image/svg+xml</dc:format>
        <dc:type
           rdf:resource="http://purl.org/dc/dcmitype/StillImage" />
        <dc:title></dc:title>
      </cc:Work>
    </rdf:RDF>
  </metadata>
  <defs
     id="defs82" />
  <sodipodi:namedview
     inkscape:current-layer="svg78"
     inkscape:window-maximized="1"
     inkscape:window-y="23"
     inkscape:window-x="0"
     inkscape:cy="23.071429"
     inkscape:cx="37.735427"
     inkscape:zoom="14"
     showgrid="false"
     id="namedview80"
     inkscape:window-height="1005"
     inkscape:window-width="1680"
     inkscape:pageshadow="2"
     inkscape:pageopacity="0"
     guidetolerance="10"
     gridtolerance="10"
     objecttolerance="10"
     borderopacity="1"
     inkscape:document-rotation="0"
     bordercolor="#666666"
     pagecolor="#ffffff" />
  <g
     transform="matrix(0.4108756,0,0,0.49223389,4.1339263,-4.128294)"
     id="g144">
    <g
       id="g88">
	<path
   inkscape:connector-curvature="0"
   d="M 95.201,25.538 C 94.015,20.386 89.801,16.585 84.728,16.018 72.715,14.677 60.556,14.67 48.453,14.677 36.348,14.67 24.187,14.677 12.174,16.018 7.104,16.585 2.893,20.386 1.707,25.538 0.019,32.875 0,40.884 0,48.438 0,55.992 0,64 1.688,71.336 c 1.184,5.151 5.396,8.952 10.469,9.52 12.012,1.342 24.172,1.349 36.277,1.342 12.107,0.007 24.264,0 36.275,-1.342 5.07,-0.567 9.285,-4.368 10.471,-9.52 1.689,-7.337 1.695,-15.345 1.695,-22.898 0,-7.554 0.014,-15.563 -1.674,-22.9 z M 35.936,63.474 c 0,-10.716 0,-21.32 0,-32.037 10.267,5.357 20.466,10.678 30.798,16.068 -10.3,5.342 -20.504,10.631 -30.798,15.969 z"
   id="path86" />

</g>
    <g
       id="g90">
</g>
    <g
       id="g92">
</g>
    <g
       id="g94">
</g>
    <g
       id="g96">
</g>
    <g
       id="g98">
</g>
    <g
       id="g100">
</g>
    <g
       id="g102">
</g>
    <g
       id="g104">
</g>
    <g
       id="g106">
</g>
    <g
       id="g108">
</g>
    <g
       id="g110">
</g>
    <g
       id="g112">
</g>
    <g
       id="g114">
</g>
    <g
       id="g116">
</g>
    <g
       id="g118">
</g>
  </g>
  <text
     id="text148"
     y="45.57143"
     x="2.9999998"
     style="font-style:normal;font-variant:normal;font-weight:normal;font-stretch:normal;font-size:9.33333px;line-height:1.25;font-family:Impact;-inkscape-font-specification:Impact;fill:#000000;fill-opacity:1;stroke:none"
     xml:space="preserve"><tspan
       style="font-style:normal;font-variant:normal;font-weight:normal;font-stretch:normal;font-family:Impact;-inkscape-font-specification:Impact"
       y="45.57143"
       x="2.9999998"
       id="tspan146"
       sodipodi:role="line">YtAutoDark</tspan></text>
</svg>
